<svg
className="logo"
viewBox="0 0 30 30"
fill="none"
xmlns="http://www.w3.org/2000/svg"
>
<path
d="M15 30C23.2843 30 30 23.2843 30 15C30 6.71573 23.2843 0 15 0C6.71573 0 0 6.71573 0 15C0 23.2843 6.71573 30 15 30Z"
fill="#009E35"
/>
<path
d="M15.6731 21.8563C20.6085 21.9331 19.497 18.8748 18.6899 18.807C19.0429 18.3113 19.8225 17.6812 20.0444 16.8114C20.3498 15.6139 19.038 15.1089 18.5598 15.0518C19.0645 14.5604 19.1935 14.4542 19.6113 13.2012C20.5587 10.3601 18.6498 10.0316 17.4888 10.1815C17.8518 8.26121 16.7498 5.53525 15.2843 5.53525C13.4052 5.53525 12.0432 8.36908 12.0147 10.2241C10.8908 10.0704 10.4566 9.91971 9.82973 10.5752C8.83431 11.6161 10.091 13.7237 10.8265 14.5694C10.1786 14.597 8.4392 15.8002 9.53559 17.1801C9.93774 17.6862 11.1604 18.8341 12.0832 19.5288C11.437 19.8159 10.7793 23.6385 15.6731 21.8563Z"
fill="white"
/>
<path
d="M15.3049 21.8196L16.0407 21.6776C16.0407 21.6776 16.2262 22.6683 16.3518 23.1636C16.4826 23.6791 16.8014 24.626 16.8014 24.626L15.8025 24.8811C15.8025 24.8811 15.6979 23.8121 15.6109 23.2825C15.5302 22.7909 15.3049 21.8196 15.3049 21.8196Z"
fill="white"
/>
</svg>
