<svg
className="logo"
viewBox="0 0 157 30"
fill="none"
xmlns="http://www.w3.org/2000/svg"
>
<path
d="M15 30C23.2843 30 30 23.2843 30 15C30 6.71573 23.2843 0 15 0C6.71573 0 0 6.71573 0 15C0 23.2843 6.71573 30 15 30Z"
fill="#009E35"
/>
<path
d="M15.6731 21.8563C20.6085 21.9331 19.497 18.8748 18.6899 18.807C19.0429 18.3113 19.8225 17.6812 20.0444 16.8114C20.3498 15.6139 19.038 15.1089 18.5598 15.0518C19.0645 14.5604 19.1935 14.4542 19.6113 13.2012C20.5587 10.3601 18.6498 10.0316 17.4888 10.1815C17.8518 8.26121 16.7498 5.53525 15.2843 5.53525C13.4052 5.53525 12.0432 8.36908 12.0147 10.2241C10.8908 10.0704 10.4566 9.91971 9.82973 10.5752C8.83431 11.6161 10.091 13.7237 10.8265 14.5694C10.1786 14.597 8.4392 15.8002 9.53559 17.1801C9.93774 17.6862 11.1604 18.8341 12.0832 19.5288C11.437 19.8159 10.7793 23.6385 15.6731 21.8563Z"
fill="white"
/>
<path
d="M15.3049 21.8196L16.0407 21.6776C16.0407 21.6776 16.2262 22.6683 16.3518 23.1636C16.4826 23.6791 16.8014 24.626 16.8014 24.626L15.8025 24.8811C15.8025 24.8811 15.6979 23.8121 15.6109 23.2825C15.5302 22.7909 15.3049 21.8196 15.3049 21.8196Z"
fill="white"
/>
<path
d="M50.748 20.712V23H41.156V7.6H43.532V20.712H50.748ZM55.2719 8.942C54.7586 8.942 54.3773 8.81 54.1279 8.546C53.8786 8.282 53.7539 7.93733 53.7539 7.512C53.7539 7.14533 53.8786 6.81533 54.1279 6.522C54.3773 6.22867 54.7586 6.082 55.2719 6.082C55.7853 6.082 56.1666 6.214 56.4159 6.478C56.6653 6.742 56.7899 7.08667 56.7899 7.512C56.7899 7.87867 56.6653 8.20867 56.4159 8.502C56.1666 8.79533 55.7853 8.942 55.2719 8.942ZM56.4379 23H54.1719V11.45H56.4379V23ZM66.543 14.486C66.1323 14.0753 65.663 13.738 65.135 13.474C64.6216 13.21 64.145 13.078 63.705 13.078C63.397 13.078 63.089 13.1147 62.781 13.188C62.4876 13.2613 62.2383 13.4007 62.033 13.606C61.8276 13.7967 61.725 14.0827 61.725 14.464C61.7396 14.992 61.9743 15.366 62.429 15.586C62.8983 15.806 63.4776 16.004 64.167 16.18C64.7683 16.3413 65.355 16.5467 65.927 16.796C66.499 17.0307 66.9683 17.3827 67.335 17.852C67.7163 18.3067 67.907 18.952 67.907 19.788C67.907 20.5067 67.7016 21.1227 67.291 21.636C66.895 22.1493 66.3743 22.5453 65.729 22.824C65.0983 23.088 64.431 23.22 63.727 23.22C62.891 23.22 62.0623 23.0733 61.241 22.78C60.4343 22.472 59.745 21.9513 59.173 21.218L60.713 19.898C61.109 20.3527 61.5563 20.712 62.055 20.976C62.5683 21.2253 63.1916 21.35 63.925 21.35C64.2036 21.35 64.4823 21.306 64.761 21.218C65.0396 21.1153 65.2743 20.9613 65.465 20.756C65.6703 20.536 65.773 20.2427 65.773 19.876C65.773 19.524 65.663 19.2527 65.443 19.062C65.2376 18.8567 64.959 18.6953 64.607 18.578C64.255 18.446 63.8663 18.3287 63.441 18.226C62.8103 18.05 62.187 17.8373 61.571 17.588C60.9696 17.324 60.4636 16.9573 60.053 16.488C59.657 16.004 59.459 15.3513 59.459 14.53C59.459 13.8407 59.6496 13.254 60.031 12.77C60.427 12.2713 60.9403 11.89 61.571 11.626C62.2016 11.3473 62.8763 11.208 63.595 11.208C64.2843 11.208 65.0323 11.3547 65.839 11.648C66.6456 11.9413 67.313 12.4107 67.841 13.056L66.543 14.486ZM74.1003 23H71.8343V13.65H69.4363V11.45H71.8343V8.502H74.1003V11.45H76.7843V13.65H74.1003V23ZM97.0037 12.506C97.0037 13.43 96.725 14.288 96.1677 15.08C95.625 15.872 94.9137 16.4587 94.0337 16.84L97.6197 23.022L94.7377 23L91.4817 17.214H87.9617V23H85.5857V7.6H92.1417C92.9484 7.6 93.7184 7.798 94.4517 8.194C95.1997 8.59 95.8084 9.15467 96.2777 9.888C96.7617 10.6213 97.0037 11.494 97.0037 12.506ZM91.7457 9.888H87.9617V14.926H92.3617C93.0657 14.926 93.6084 14.6767 93.9897 14.178C94.3857 13.6793 94.5837 13.1147 94.5837 12.484C94.5837 11.6773 94.305 11.0467 93.7477 10.592C93.1904 10.1227 92.523 9.888 91.7457 9.888ZM110.947 17.214C110.947 18.3873 110.683 19.4287 110.155 20.338C109.642 21.2327 108.938 21.9367 108.043 22.45C107.163 22.9633 106.173 23.22 105.073 23.22C103.973 23.22 102.976 22.9633 102.081 22.45C101.186 21.9367 100.475 21.2327 99.9469 20.338C99.4335 19.4287 99.1769 18.3873 99.1769 17.214C99.1769 16.0407 99.4335 15.0067 99.9469 14.112C100.475 13.2027 101.186 12.4913 102.081 11.978C102.976 11.4647 103.973 11.208 105.073 11.208C106.173 11.208 107.163 11.4647 108.043 11.978C108.938 12.4913 109.642 13.2027 110.155 14.112C110.683 15.0067 110.947 16.0407 110.947 17.214ZM108.637 17.214C108.652 16.4367 108.498 15.7547 108.175 15.168C107.867 14.5667 107.442 14.1047 106.899 13.782C106.356 13.4447 105.748 13.276 105.073 13.276C104.398 13.276 103.782 13.4447 103.225 13.782C102.682 14.1047 102.25 14.5667 101.927 15.168C101.619 15.7547 101.472 16.4367 101.487 17.214C101.472 17.9767 101.619 18.6587 101.927 19.26C102.25 19.8467 102.682 20.3087 103.225 20.646C103.782 20.9833 104.398 21.152 105.073 21.152C105.748 21.152 106.356 20.9833 106.899 20.646C107.442 20.3087 107.867 19.8467 108.175 19.26C108.498 18.6587 108.652 17.9767 108.637 17.214ZM114.868 17.214C114.868 17.9767 115.037 18.6587 115.374 19.26C115.726 19.8467 116.181 20.316 116.738 20.668C117.31 21.0053 117.919 21.174 118.564 21.174C119.297 21.174 119.935 20.9833 120.478 20.602C121.021 20.2207 121.461 19.8247 121.798 19.414L123.052 20.954C122.773 21.35 122.392 21.724 121.908 22.076C121.424 22.4133 120.874 22.692 120.258 22.912C119.642 23.1173 118.997 23.22 118.322 23.22C117.266 23.22 116.313 22.956 115.462 22.428C114.611 21.9 113.937 21.1813 113.438 20.272C112.954 19.3627 112.712 18.3433 112.712 17.214C112.712 16.07 112.954 15.0507 113.438 14.156C113.937 13.2467 114.611 12.528 115.462 12C116.313 11.472 117.266 11.208 118.322 11.208C119.393 11.208 120.346 11.428 121.182 11.868C122.018 12.2933 122.641 12.8507 123.052 13.54L121.798 15.08C121.461 14.5813 120.977 14.156 120.346 13.804C119.73 13.4373 119.129 13.254 118.542 13.254C117.853 13.254 117.229 13.43 116.672 13.782C116.115 14.1193 115.675 14.5887 115.352 15.19C115.029 15.7767 114.868 16.4513 114.868 17.214ZM125.189 23V6.72H127.455V16.62L132.669 11.45H135.727L130.315 16.532L135.881 23H132.977L128.709 18.028L127.455 19.216V23H125.189ZM147.121 21.482H147.099C146.63 21.9367 145.985 22.34 145.163 22.692C144.342 23.044 143.484 23.22 142.589 23.22C141.387 23.22 140.323 22.9707 139.399 22.472C138.49 21.9587 137.779 21.262 137.265 20.382C136.752 19.4873 136.495 18.4753 136.495 17.346C136.495 16.0553 136.767 14.9553 137.309 14.046C137.852 13.122 138.571 12.418 139.465 11.934C140.36 11.4353 141.335 11.186 142.391 11.186C143.359 11.186 144.239 11.428 145.031 11.912C145.823 12.3813 146.454 13.034 146.923 13.87C147.393 14.706 147.627 15.6813 147.627 16.796L147.605 17.764H138.761C138.893 18.8053 139.319 19.634 140.037 20.25C140.771 20.8513 141.695 21.152 142.809 21.152C143.616 21.152 144.269 21.0053 144.767 20.712C145.266 20.404 145.677 20.1107 145.999 19.832L147.121 21.482ZM142.391 13.276C141.526 13.276 140.771 13.4813 140.125 13.892C139.48 14.288 139.055 14.9773 138.849 15.96H145.317V15.806C145.273 15.3073 145.105 14.8673 144.811 14.486C144.533 14.1047 144.181 13.8113 143.755 13.606C143.33 13.386 142.875 13.276 142.391 13.276ZM153.786 23H151.52V13.65H149.122V11.45H151.52V8.502H153.786V11.45H156.47V13.65H153.786V23Z"
fill="#F9F9F9"
/>
</svg>
